<svg xmlns="http://www.w3.org/2000/svg" xmlns:xlink="http://www.w3.org/1999/xlink" width="500" zoomAndPan="magnify" viewBox="0 0 375 374.999991" height="500" preserveAspectRatio="xMidYMid meet" version="1.0"><defs><g/><clipPath id="302ecafe02"><path d="M 0.71875 22 L 28 22 L 28 43 L 0.71875 43 Z M 0.71875 22 " clip-rule="nonzero"/></clipPath><clipPath id="2c6d9dd413"><rect x="0" width="221" y="0" height="57"/></clipPath><clipPath id="4416a12b3f"><path d="M 63 138 L 132 138 L 132 210 L 63 210 Z M 63 138 " clip-rule="nonzero"/></clipPath><clipPath id="51aac86454"><path d="M 62.0625 138.628906 L 131.023438 136.308594 L 133.492188 209.769531 L 64.53125 212.085938 Z M 62.0625 138.628906 " clip-rule="nonzero"/></clipPath><clipPath id="3c907bbad7"><path d="M 62.0625 138.628906 L 131.023438 136.308594 L 133.492188 209.769531 L 64.53125 212.085938 Z M 62.0625 138.628906 " clip-rule="nonzero"/></clipPath></defs><rect x="-37.5" width="450" fill="#ffffff" y="-37.499999" height="449.999989" fill-opacity="1"/><rect x="-37.5" width="450" fill="#ffffff" y="-37.499999" height="449.999989" fill-opacity="1"/><g transform="matrix(1, 0, 0, 1, 78, 150)"><g clip-path="url(#2c6d9dd413)"><g clip-path="url(#302ecafe02)"><g fill="#000000" fill-opacity="1"><g transform="translate(1.710388, 42.547623)"><g><path d="M 7.546875 -20.375 L 12.515625 -9.296875 L 17.46875 -20.375 L 25.8125 -20.375 L 14.890625 0 L 10.125 0 L -0.796875 -20.375 Z M 7.546875 -20.375 "/></g></g></g></g><g fill="#000000" fill-opacity="1"><g transform="translate(23.352224, 42.547623)"><g><path d="M 3.765625 -2.515625 C 1.859375 -4.597656 0.90625 -7.148438 0.90625 -10.171875 C 0.90625 -13.191406 1.859375 -15.742188 3.765625 -17.828125 C 5.679688 -19.921875 8.109375 -20.96875 11.046875 -20.96875 C 13.742188 -20.96875 15.96875 -20.117188 17.71875 -18.421875 L 17.71875 -20.375 L 24.75 -20.375 L 24.75 0 L 17.796875 0 L 17.796875 -2.296875 L 17.71875 -2.296875 C 15.96875 -0.367188 13.742188 0.59375 11.046875 0.59375 C 8.109375 0.59375 5.679688 -0.441406 3.765625 -2.515625 Z M 9.75 -13.609375 C 8.832031 -12.710938 8.375 -11.5625 8.375 -10.15625 C 8.375 -8.757812 8.8125 -7.617188 9.6875 -6.734375 C 10.5625 -5.847656 11.710938 -5.40625 13.140625 -5.40625 C 14.523438 -5.40625 15.660156 -5.851562 16.546875 -6.75 C 17.429688 -7.65625 17.875 -8.796875 17.875 -10.171875 C 17.875 -11.566406 17.414062 -12.710938 16.5 -13.609375 C 15.59375 -14.515625 14.472656 -14.96875 13.140625 -14.96875 C 11.796875 -14.96875 10.664062 -14.515625 9.75 -13.609375 Z M 9.75 -13.609375 "/></g></g></g><g fill="#000000" fill-opacity="1"><g transform="translate(47.098749, 42.547623)"><g><path d="M 9.015625 -20.375 L 9.015625 -10.6875 C 9.015625 -8.675781 9.316406 -7.242188 9.921875 -6.390625 C 10.535156 -5.546875 11.570312 -5.125 13.03125 -5.125 C 14.488281 -5.125 15.519531 -5.546875 16.125 -6.390625 C 16.738281 -7.242188 17.046875 -8.675781 17.046875 -10.6875 L 17.046875 -20.375 L 24.0625 -20.375 L 24.0625 -8.96875 C 24.0625 -5.582031 23.179688 -3.140625 21.421875 -1.640625 C 19.660156 -0.148438 16.859375 0.59375 13.015625 0.59375 C 9.179688 0.59375 6.382812 -0.148438 4.625 -1.640625 C 2.863281 -3.140625 1.984375 -5.582031 1.984375 -8.96875 L 1.984375 -20.375 Z M 9.015625 -20.375 "/></g></g></g><g fill="#000000" fill-opacity="1"><g transform="translate(69.773072, 42.547623)"><g><path d="M 2.390625 0 L 2.390625 -34.15625 L 9.40625 -34.15625 L 9.40625 0 Z M 2.390625 0 "/></g></g></g><g fill="#000000" fill-opacity="1"><g transform="translate(78.191101, 42.547623)"><g><path d="M 3.578125 -20.375 L 3.578125 -27.96875 L 10.609375 -27.96875 L 10.609375 -20.375 L 14.890625 -20.375 L 14.890625 -15.015625 L 10.609375 -15.015625 L 10.609375 -8.546875 C 10.609375 -6.660156 11.132812 -5.71875 12.1875 -5.71875 C 12.457031 -5.71875 12.738281 -5.769531 13.03125 -5.875 C 13.320312 -5.976562 13.546875 -6.085938 13.703125 -6.203125 L 13.9375 -6.359375 L 15.6875 -0.671875 C 14.175781 0.171875 12.457031 0.59375 10.53125 0.59375 C 9.207031 0.59375 8.066406 0.363281 7.109375 -0.09375 C 6.160156 -0.5625 5.4375 -1.1875 4.9375 -1.96875 C 4.445312 -2.75 4.097656 -3.566406 3.890625 -4.421875 C 3.679688 -5.285156 3.578125 -6.207031 3.578125 -7.1875 L 3.578125 -15.015625 L 0.640625 -15.015625 L 0.640625 -20.375 Z M 3.578125 -20.375 "/></g></g></g><g fill="#000000" fill-opacity="1"><g transform="translate(99.75755, 38.356298)"><g><path d="M 4.265625 6.875 C 3.773438 6.875 3.40625 6.742188 3.15625 6.484375 C 2.914062 6.222656 2.796875 5.847656 2.796875 5.359375 L 2.796875 -16.609375 C 2.796875 -17.097656 2.914062 -17.472656 3.15625 -17.734375 C 3.40625 -17.992188 3.757812 -18.125 4.21875 -18.125 C 4.71875 -18.125 5.09375 -17.992188 5.34375 -17.734375 C 5.601562 -17.472656 5.734375 -17.097656 5.734375 -16.609375 L 5.734375 -13.125 L 5.328125 -13.640625 C 5.722656 -15.035156 6.5 -16.140625 7.65625 -16.953125 C 8.820312 -17.773438 10.210938 -18.1875 11.828125 -18.1875 C 13.421875 -18.1875 14.8125 -17.8125 16 -17.0625 C 17.1875 -16.320312 18.101562 -15.257812 18.75 -13.875 C 19.40625 -12.488281 19.734375 -10.84375 19.734375 -8.9375 C 19.734375 -7.039062 19.40625 -5.398438 18.75 -4.015625 C 18.101562 -2.640625 17.191406 -1.570312 16.015625 -0.8125 C 14.847656 -0.0507812 13.453125 0.328125 11.828125 0.328125 C 10.210938 0.328125 8.828125 -0.078125 7.671875 -0.890625 C 6.523438 -1.710938 5.742188 -2.8125 5.328125 -4.1875 L 5.765625 -4.1875 L 5.765625 5.359375 C 5.765625 5.847656 5.628906 6.222656 5.359375 6.484375 C 5.097656 6.742188 4.734375 6.875 4.265625 6.875 Z M 11.203125 -2.0625 C 12.335938 -2.0625 13.3125 -2.328125 14.125 -2.859375 C 14.945312 -3.398438 15.582031 -4.1875 16.03125 -5.21875 C 16.488281 -6.25 16.71875 -7.488281 16.71875 -8.9375 C 16.71875 -11.164062 16.222656 -12.863281 15.234375 -14.03125 C 14.242188 -15.207031 12.898438 -15.796875 11.203125 -15.796875 C 10.109375 -15.796875 9.144531 -15.53125 8.3125 -15 C 7.476562 -14.476562 6.832031 -13.707031 6.375 -12.6875 C 5.925781 -11.675781 5.703125 -10.425781 5.703125 -8.9375 C 5.703125 -6.726562 6.203125 -5.03125 7.203125 -3.84375 C 8.203125 -2.65625 9.535156 -2.0625 11.203125 -2.0625 Z M 11.203125 -2.0625 "/></g></g></g><g fill="#000000" fill-opacity="1"><g transform="translate(118.826853, 38.356298)"><g><path d="M 8.421875 0.328125 C 7.191406 0.328125 6.09375 0.0859375 5.125 -0.390625 C 4.15625 -0.867188 3.390625 -1.519531 2.828125 -2.34375 C 2.265625 -3.175781 1.984375 -4.109375 1.984375 -5.140625 C 1.984375 -6.460938 2.316406 -7.503906 2.984375 -8.265625 C 3.660156 -9.023438 4.773438 -9.5625 6.328125 -9.875 C 7.890625 -10.195312 10.019531 -10.359375 12.71875 -10.359375 L 14.375 -10.359375 L 14.375 -8.421875 L 12.75 -8.421875 C 10.769531 -8.421875 9.207031 -8.328125 8.0625 -8.140625 C 6.925781 -7.953125 6.128906 -7.640625 5.671875 -7.203125 C 5.222656 -6.765625 5 -6.140625 5 -5.328125 C 5 -4.328125 5.347656 -3.503906 6.046875 -2.859375 C 6.742188 -2.222656 7.691406 -1.90625 8.890625 -1.90625 C 9.867188 -1.90625 10.734375 -2.140625 11.484375 -2.609375 C 12.234375 -3.078125 12.820312 -3.710938 13.25 -4.515625 C 13.675781 -5.328125 13.890625 -6.257812 13.890625 -7.3125 L 13.890625 -11.5 C 13.890625 -13.019531 13.582031 -14.113281 12.96875 -14.78125 C 12.351562 -15.457031 11.347656 -15.796875 9.953125 -15.796875 C 9.097656 -15.796875 8.238281 -15.6875 7.375 -15.46875 C 6.519531 -15.25 5.617188 -14.894531 4.671875 -14.40625 C 4.328125 -14.238281 4.03125 -14.179688 3.78125 -14.234375 C 3.539062 -14.296875 3.347656 -14.425781 3.203125 -14.625 C 3.054688 -14.820312 2.96875 -15.046875 2.9375 -15.296875 C 2.914062 -15.554688 2.972656 -15.804688 3.109375 -16.046875 C 3.242188 -16.296875 3.457031 -16.492188 3.75 -16.640625 C 4.820312 -17.179688 5.882812 -17.570312 6.9375 -17.8125 C 8 -18.0625 9.003906 -18.1875 9.953125 -18.1875 C 11.503906 -18.1875 12.78125 -17.9375 13.78125 -17.4375 C 14.78125 -16.9375 15.523438 -16.175781 16.015625 -15.15625 C 16.515625 -14.144531 16.765625 -12.84375 16.765625 -11.25 L 16.765625 -1.28125 C 16.765625 -0.789062 16.644531 -0.410156 16.40625 -0.140625 C 16.175781 0.117188 15.835938 0.25 15.390625 0.25 C 14.929688 0.25 14.578125 0.117188 14.328125 -0.140625 C 14.085938 -0.410156 13.96875 -0.789062 13.96875 -1.28125 L 13.96875 -4.15625 L 14.296875 -4.15625 C 14.097656 -3.21875 13.722656 -2.414062 13.171875 -1.75 C 12.617188 -1.09375 11.9375 -0.582031 11.125 -0.21875 C 10.320312 0.144531 9.421875 0.328125 8.421875 0.328125 Z M 8.421875 0.328125 "/></g></g></g><g fill="#000000" fill-opacity="1"><g transform="translate(135.948741, 38.356298)"><g><path d="M 4.296875 0.25 C 3.804688 0.25 3.429688 0.117188 3.171875 -0.140625 C 2.921875 -0.410156 2.796875 -0.789062 2.796875 -1.28125 L 2.796875 -16.609375 C 2.796875 -17.097656 2.914062 -17.472656 3.15625 -17.734375 C 3.40625 -17.992188 3.757812 -18.125 4.21875 -18.125 C 4.6875 -18.125 5.050781 -17.992188 5.3125 -17.734375 C 5.570312 -17.472656 5.703125 -17.097656 5.703125 -16.609375 L 5.703125 -13.640625 L 5.328125 -13.640625 C 5.722656 -15.078125 6.46875 -16.1875 7.5625 -16.96875 C 8.664062 -17.757812 10.03125 -18.179688 11.65625 -18.234375 C 12.019531 -18.253906 12.3125 -18.171875 12.53125 -17.984375 C 12.75 -17.804688 12.875 -17.492188 12.90625 -17.046875 C 12.925781 -16.628906 12.828125 -16.296875 12.609375 -16.046875 C 12.390625 -15.804688 12.046875 -15.664062 11.578125 -15.625 L 10.984375 -15.546875 C 9.316406 -15.398438 8.035156 -14.863281 7.140625 -13.9375 C 6.253906 -13.019531 5.8125 -11.769531 5.8125 -10.1875 L 5.8125 -1.28125 C 5.8125 -0.789062 5.679688 -0.410156 5.421875 -0.140625 C 5.160156 0.117188 4.785156 0.25 4.296875 0.25 Z M 4.296875 0.25 "/></g></g></g><g fill="#000000" fill-opacity="1"><g transform="translate(146.750695, 38.356298)"><g><path d="M 9.953125 0.328125 C 8.554688 0.328125 7.382812 0.078125 6.4375 -0.421875 C 5.5 -0.921875 4.796875 -1.65625 4.328125 -2.625 C 3.867188 -3.59375 3.640625 -4.773438 3.640625 -6.171875 L 3.640625 -15.546875 L 1.171875 -15.546875 C 0.753906 -15.546875 0.4375 -15.648438 0.21875 -15.859375 C 0 -16.066406 -0.109375 -16.351562 -0.109375 -16.71875 C -0.109375 -17.082031 0 -17.363281 0.21875 -17.5625 C 0.4375 -17.757812 0.753906 -17.859375 1.171875 -17.859375 L 3.640625 -17.859375 L 3.640625 -22.09375 C 3.640625 -22.582031 3.773438 -22.953125 4.046875 -23.203125 C 4.316406 -23.460938 4.679688 -23.59375 5.140625 -23.59375 C 5.609375 -23.59375 5.96875 -23.460938 6.21875 -23.203125 C 6.476562 -22.953125 6.609375 -22.582031 6.609375 -22.09375 L 6.609375 -17.859375 L 11.25 -17.859375 C 11.664062 -17.859375 11.984375 -17.757812 12.203125 -17.5625 C 12.421875 -17.363281 12.53125 -17.082031 12.53125 -16.71875 C 12.53125 -16.351562 12.421875 -16.066406 12.203125 -15.859375 C 11.984375 -15.648438 11.664062 -15.546875 11.25 -15.546875 L 6.609375 -15.546875 L 6.609375 -6.46875 C 6.609375 -5.070312 6.898438 -4.007812 7.484375 -3.28125 C 8.078125 -2.5625 9.035156 -2.203125 10.359375 -2.203125 C 10.828125 -2.203125 11.222656 -2.25 11.546875 -2.34375 C 11.878906 -2.445312 12.160156 -2.5 12.390625 -2.5 C 12.609375 -2.519531 12.789062 -2.441406 12.9375 -2.265625 C 13.082031 -2.097656 13.15625 -1.804688 13.15625 -1.390625 C 13.15625 -1.097656 13.097656 -0.828125 12.984375 -0.578125 C 12.878906 -0.335938 12.691406 -0.171875 12.421875 -0.078125 C 12.128906 0.0234375 11.742188 0.117188 11.265625 0.203125 C 10.785156 0.285156 10.347656 0.328125 9.953125 0.328125 Z M 9.953125 0.328125 "/></g></g></g><g fill="#000000" fill-opacity="1"><g transform="translate(157.258695, 38.356298)"><g><path d="M 4.265625 0.25 C 3.773438 0.25 3.40625 0.117188 3.15625 -0.140625 C 2.914062 -0.410156 2.796875 -0.789062 2.796875 -1.28125 L 2.796875 -16.609375 C 2.796875 -17.097656 2.914062 -17.472656 3.15625 -17.734375 C 3.40625 -17.992188 3.757812 -18.125 4.21875 -18.125 C 4.6875 -18.125 5.050781 -17.992188 5.3125 -17.734375 C 5.570312 -17.472656 5.703125 -17.097656 5.703125 -16.609375 L 5.703125 -13.453125 L 5.296875 -13.890625 C 5.804688 -15.304688 6.644531 -16.375 7.8125 -17.09375 C 8.976562 -17.820312 10.316406 -18.1875 11.828125 -18.1875 C 13.253906 -18.1875 14.4375 -17.925781 15.375 -17.40625 C 16.320312 -16.894531 17.023438 -16.117188 17.484375 -15.078125 C 17.953125 -14.046875 18.1875 -12.734375 18.1875 -11.140625 L 18.1875 -1.28125 C 18.1875 -0.789062 18.054688 -0.410156 17.796875 -0.140625 C 17.546875 0.117188 17.1875 0.25 16.71875 0.25 C 16.226562 0.25 15.851562 0.117188 15.59375 -0.140625 C 15.34375 -0.410156 15.21875 -0.789062 15.21875 -1.28125 L 15.21875 -10.953125 C 15.21875 -12.617188 14.890625 -13.835938 14.234375 -14.609375 C 13.585938 -15.378906 12.554688 -15.765625 11.140625 -15.765625 C 9.492188 -15.765625 8.1875 -15.253906 7.21875 -14.234375 C 6.25 -13.222656 5.765625 -11.875 5.765625 -10.1875 L 5.765625 -1.28125 C 5.765625 -0.257812 5.265625 0.25 4.265625 0.25 Z M 4.265625 0.25 "/></g></g></g><g fill="#000000" fill-opacity="1"><g transform="translate(175.776839, 38.356298)"><g><path d="M 10.84375 0.328125 C 8.957031 0.328125 7.332031 -0.0390625 5.96875 -0.78125 C 4.613281 -1.53125 3.5625 -2.59375 2.8125 -3.96875 C 2.0625 -5.34375 1.6875 -6.984375 1.6875 -8.890625 C 1.6875 -10.753906 2.050781 -12.378906 2.78125 -13.765625 C 3.519531 -15.148438 4.53125 -16.234375 5.8125 -17.015625 C 7.101562 -17.796875 8.597656 -18.1875 10.296875 -18.1875 C 11.492188 -18.1875 12.566406 -17.984375 13.515625 -17.578125 C 14.472656 -17.179688 15.289062 -16.601562 15.96875 -15.84375 C 16.644531 -15.082031 17.160156 -14.160156 17.515625 -13.078125 C 17.867188 -12.003906 18.046875 -10.789062 18.046875 -9.4375 C 18.046875 -9.050781 17.929688 -8.765625 17.703125 -8.578125 C 17.484375 -8.398438 17.171875 -8.3125 16.765625 -8.3125 L 3.96875 -8.3125 L 3.96875 -10.25 L 16.0625 -10.25 L 15.46875 -9.78125 C 15.46875 -11.101562 15.269531 -12.222656 14.875 -13.140625 C 14.488281 -14.054688 13.921875 -14.757812 13.171875 -15.25 C 12.421875 -15.738281 11.484375 -15.984375 10.359375 -15.984375 C 9.109375 -15.984375 8.046875 -15.695312 7.171875 -15.125 C 6.304688 -14.550781 5.65625 -13.753906 5.21875 -12.734375 C 4.78125 -11.710938 4.5625 -10.53125 4.5625 -9.1875 L 4.5625 -8.96875 C 4.5625 -6.71875 5.101562 -5.003906 6.1875 -3.828125 C 7.28125 -2.648438 8.832031 -2.0625 10.84375 -2.0625 C 11.675781 -2.0625 12.5 -2.171875 13.3125 -2.390625 C 14.132812 -2.609375 14.941406 -2.972656 15.734375 -3.484375 C 16.078125 -3.710938 16.390625 -3.816406 16.671875 -3.796875 C 16.953125 -3.785156 17.175781 -3.703125 17.34375 -3.546875 C 17.519531 -3.390625 17.632812 -3.191406 17.6875 -2.953125 C 17.75 -2.722656 17.722656 -2.472656 17.609375 -2.203125 C 17.503906 -1.929688 17.296875 -1.695312 16.984375 -1.5 C 16.171875 -0.914062 15.210938 -0.460938 14.109375 -0.140625 C 13.003906 0.171875 11.914062 0.328125 10.84375 0.328125 Z M 10.84375 0.328125 "/></g></g></g><g fill="#000000" fill-opacity="1"><g transform="translate(192.972211, 38.356298)"><g><path d="M 4.296875 0.25 C 3.804688 0.25 3.429688 0.117188 3.171875 -0.140625 C 2.921875 -0.410156 2.796875 -0.789062 2.796875 -1.28125 L 2.796875 -16.609375 C 2.796875 -17.097656 2.914062 -17.472656 3.15625 -17.734375 C 3.40625 -17.992188 3.757812 -18.125 4.21875 -18.125 C 4.6875 -18.125 5.050781 -17.992188 5.3125 -17.734375 C 5.570312 -17.472656 5.703125 -17.097656 5.703125 -16.609375 L 5.703125 -13.640625 L 5.328125 -13.640625 C 5.722656 -15.078125 6.46875 -16.1875 7.5625 -16.96875 C 8.664062 -17.757812 10.03125 -18.179688 11.65625 -18.234375 C 12.019531 -18.253906 12.3125 -18.171875 12.53125 -17.984375 C 12.75 -17.804688 12.875 -17.492188 12.90625 -17.046875 C 12.925781 -16.628906 12.828125 -16.296875 12.609375 -16.046875 C 12.390625 -15.804688 12.046875 -15.664062 11.578125 -15.625 L 10.984375 -15.546875 C 9.316406 -15.398438 8.035156 -14.863281 7.140625 -13.9375 C 6.253906 -13.019531 5.8125 -11.769531 5.8125 -10.1875 L 5.8125 -1.28125 C 5.8125 -0.789062 5.679688 -0.410156 5.421875 -0.140625 C 5.160156 0.117188 4.785156 0.25 4.296875 0.25 Z M 4.296875 0.25 "/></g></g></g><g fill="#000000" fill-opacity="1"><g transform="translate(203.774165, 38.356298)"><g><path d="M 8.8125 0.328125 C 7.71875 0.328125 6.613281 0.191406 5.5 -0.078125 C 4.382812 -0.347656 3.347656 -0.8125 2.390625 -1.46875 C 2.140625 -1.644531 1.96875 -1.847656 1.875 -2.078125 C 1.78125 -2.304688 1.75 -2.535156 1.78125 -2.765625 C 1.820312 -3.003906 1.921875 -3.207031 2.078125 -3.375 C 2.234375 -3.550781 2.425781 -3.65625 2.65625 -3.6875 C 2.894531 -3.726562 3.160156 -3.675781 3.453125 -3.53125 C 4.410156 -2.9375 5.335938 -2.523438 6.234375 -2.296875 C 7.128906 -2.066406 8.015625 -1.953125 8.890625 -1.953125 C 10.285156 -1.953125 11.335938 -2.207031 12.046875 -2.71875 C 12.765625 -3.226562 13.125 -3.925781 13.125 -4.8125 C 13.125 -5.5 12.890625 -6.046875 12.421875 -6.453125 C 11.953125 -6.859375 11.21875 -7.171875 10.21875 -7.390625 L 6.875 -8.125 C 5.332031 -8.4375 4.1875 -8.984375 3.4375 -9.765625 C 2.6875 -10.554688 2.3125 -11.578125 2.3125 -12.828125 C 2.3125 -13.929688 2.597656 -14.878906 3.171875 -15.671875 C 3.753906 -16.472656 4.570312 -17.09375 5.625 -17.53125 C 6.675781 -17.96875 7.898438 -18.1875 9.296875 -18.1875 C 10.378906 -18.1875 11.398438 -18.046875 12.359375 -17.765625 C 13.328125 -17.484375 14.207031 -17.035156 15 -16.421875 C 15.238281 -16.253906 15.398438 -16.050781 15.484375 -15.8125 C 15.578125 -15.582031 15.59375 -15.351562 15.53125 -15.125 C 15.46875 -14.894531 15.347656 -14.695312 15.171875 -14.53125 C 15.003906 -14.375 14.796875 -14.28125 14.546875 -14.25 C 14.304688 -14.226562 14.050781 -14.304688 13.78125 -14.484375 C 13.039062 -14.972656 12.289062 -15.332031 11.53125 -15.5625 C 10.78125 -15.789062 10.035156 -15.90625 9.296875 -15.90625 C 7.921875 -15.90625 6.878906 -15.632812 6.171875 -15.09375 C 5.460938 -14.5625 5.109375 -13.851562 5.109375 -12.96875 C 5.109375 -12.28125 5.328125 -11.71875 5.765625 -11.28125 C 6.210938 -10.84375 6.898438 -10.523438 7.828125 -10.328125 L 11.171875 -9.625 C 12.765625 -9.28125 13.957031 -8.734375 14.75 -7.984375 C 15.550781 -7.242188 15.953125 -6.238281 15.953125 -4.96875 C 15.953125 -3.34375 15.300781 -2.050781 14 -1.09375 C 12.695312 -0.144531 10.96875 0.328125 8.8125 0.328125 Z M 8.8125 0.328125 "/></g></g></g></g></g><g clip-path="url(#4416a12b3f)"><g clip-path="url(#51aac86454)"><g clip-path="url(#3c907bbad7)"><path fill="#000000" d="M 87.914062 140.101562 C 97.128906 137.453125 106.566406 138.707031 114.433594 142.902344 C 122.453125 147.179688 128.839844 154.515625 131.695312 163.898438 C 131.757812 164.105469 131.820312 164.316406 131.878906 164.523438 L 131.34375 164.730469 C 131.28125 164.507812 131.214844 164.289062 131.148438 164.066406 C 128.339844 154.835938 122.054688 147.613281 114.164062 143.40625 C 106.3125 139.21875 96.875 138.011719 87.691406 140.765625 C 87.769531 140.546875 87.84375 140.324219 87.914062 140.101562 Z M 64.125 183.871094 C 64.175781 184.050781 64.230469 184.230469 64.285156 184.414062 C 67.09375 193.644531 73.378906 200.863281 81.269531 205.074219 C 89.15625 209.28125 98.648438 210.480469 107.875 207.675781 C 107.792969 207.894531 107.714844 208.117188 107.644531 208.339844 C 98.390625 211.035156 88.902344 209.792969 81 205.578125 C 72.980469 201.300781 66.59375 193.960938 63.738281 184.578125 C 63.6875 184.414062 63.636719 184.246094 63.589844 184.078125 Z M 64.125 183.871094 " fill-opacity="1" fill-rule="evenodd"/></g></g></g></svg>